<svg xmlns:svg="http://www.w3.org/2000/svg" xmlns="http://www.w3.org/2000/svg" version="1.1" width="477" height="1000" viewBox="0 0 477 1000"><g transform="matrix(2.2328957,0,0,2.2328957,-248.79906,-3.5010599)"><path d="m325 397.5 0 17.9c-103.2 34.1-105.1 34-105.1 34l0-18.4 105-33.5zm-105-50.4 93-29.5 0.1 72.6-93.1 29.4 0-72.5zm-40.6-209.3-6-0.8-8.4-5c-4.6-2.7-8.6-5.1-8.8-5.3-0.4-0.4-2.9-18-2.4-18.3l3.8-2.6C180.9 87.3 177.3 76.1 168.7 55.1c0-0.2-4.1-7.4-4.2-7.5-0.1-0.1-1-0.2-2-0.3-2.4-0.3-2.1 0.2-3-4.5-0.4-2.2-0.9-4.1-1-4.4-0.1-0.2-2.9-2.6-6.2-5.3-4.7-3.8-6.1-5-6.2-5.4-0.9-4.9-3.8-24.2-3.6-24.4 0.3-0.3 0.2-0.5 10.5 8l9.3 7.7 0.9 3.8c0.5 2.1 1.3 5.5 1.8 7.6l0.7 3.4 3.3 3C171.1 38.4 171.6 38.5 172.6 39.7 172.8 40.4 171.5 43 171.4 43.5 172.2 45.1 172.5 45.6 174.9 50 204.2 102.3 208.1 108 266.7 105.6l2 2.2c1.1 1.2 2.1 2.4 2.4 2.8l0.5 0.6-0.3 8c-0.3 7-0.4 8-0.7 8.3-0.5 0.5-19 15.2-19.3 15.2C257.1 173.7 239.7 166.3 250.1 184.2l10.7 19.2c5.9 10.5 11 19.7 11.4 20.4 0.3 0.7 6.6 11.8 13.8 24.8 14.9 26.6 13.9 24.8 13.7 25.1-0.2 0.4-5.6 3.6-6.1 3.6-0.3 0-25.8-44.7-29-51-2.2-4.3-16.4-29.5-16.5-29.3C220.6 164.2 211.7 141.2 179.4 137.8Z" fill="#FFF"/><path d="m111.4 415.1c0-17.8 0 0 0-17.7 37.1 11.8 105.6 33.6 105.6 33.6 0.1 18.4 0 0.5 0.1 18.4C179.2 437 147.6 427.2 111.4 415.1Zm14.2-24.4-1.2-73 92.6 29.4 0 72.6c-29.6-10-61.2-18.8-91.4-29zm-10.6-78.9 0-17.5 102 32.6 0 17.6zm104.9 15.2 103-32.7c-0.1 17.6 0 10.7 0 17.6L220 344.3Zm27.2-33.3c-11.3-2.9-20.7-5.3-20.8-5.4-0.2-0.2 0.6-11.8 0.8-12 0.1-0.1 1.4-1.2 3-2.4 2.6-2.1 2.8-2.3 2.8-2.9 0-0.3-0.8-6.8-1.7-14.3l-1.6-13.7-3.2-9.4C224.3 227.4 223.9 225.7 223.4 223.7 223.7 222.7 224.2 221.3 224.8 219.6c1.7-4.8 2.2-1.8-1.5-22.5-3.7-20.7-2.6-17.8-6.9-17.8-4.3 0-3.5-2.8-5.1 18.5l-1.3 18.1 1.6 4.6 1.6 4.6-2.4 9.6-2.4 9.6-0.6 11.4c-0.3 6.3-0.6 12.1-0.7 12.9l-0.1 1.5 2.1 3.6c1.2 2 2.2 3.8 2.2 4 0.1 0.5-1.2 10-1.5 10.3-0.2 0.2-41.5 8.3-41.8 8.1-0.1-0.1-0.2-3.4-0.2-7.5l0-7.4 0.9-0.5c3.7-2.1 18.5-11 18.6-11.2 0.1-0.1-0.1-6.7-0.3-14.5l-0.4-14.2-1.4-10.9-1.4-10.9 2.3-2.5 2.3-2.5-0.1-1c-0.1-0.5-0.7-8.2-1.5-16.9-0.8-9.1-1.5-16-1.6-16.2-0.3-0.3-3.7-0.7-5.3-0.7-0.6 0-1.2-0.1-1.4-0.2C181.3 165.7 183.6 152.8 186.1 138.8 195.6 139.9 186.2 138.8 195.7 139.9l8.7 1.1 3.2-0.9c4-1.1 3.5-1.2 5.7 0.5l1.9 1.4 1-0.2c1.3-0.3 1.1-0.5 3.4 3.6 1.2 2.2 2 3.6 1.9 3.7-0.4 0.3-1.9 0.4-3.8 0.4-5.8 0-5.8-0.2-0.3 5.7l4.9 5.6 2.9-0.1 2.9-0.1 1.1 2c0.9 1.6 3.2 5.7 5.1 9.1 1.9 3.4 3.6 6.4 3.8 6.8 0.2 0.3 2.1 3.8 4.3 7.7 2.2 3.9 4.4 7.9 4.9 8.9l0.9 1.8-1.1 7.6c-0.6 4.2-1 7.9-1 8.2 0 0.5 0.5 1 2.9 3 1.6 1.3 2.9 2.6 2.9 2.7 0 0.1-0.5 4.8-1.1 10.4l-1.1 10.1 0 17.6c0 9.7 0.1 17.7 0.2 17.8 0.1 0.1 4.3 2.3 9.3 4.8l9.2 4.6-0.1 7.5c0 4.8-0.1 7.5-0.3 7.6-0.1 0-9.5-2.3-20.8-5.2zm2.6-109.9c-0.3-0.4-1.5-2.6-2.1-3.7-0.6-1.1-3.7-6.6-6.8-12.1-3.1-5.6-5.1-9.9-5.3-10.2l-0.3-0.6 1.4-1.6c0.8-0.9 3.4-3.8 5.7-6.4 2.3-2.7 4.5-5.4 4.5-5.4 0 0 1.7-0.6 4.5-0.8 0.5 1.9 6.7 35.9 6.7 36.3 0 0.4-1.6 0.3-2.6 0.3C252.3 179.2 255.5 179.3 250.6 179.2 249.7 183.7 250.6 179.2 249.8 183.7Zm-21.5-38.2c-0.1-0.1-0.9-1.5-1.7-3l-1.5-2.7 0.5-0.5c0.5-0.6 3.3-8.9 3.3-9.9 0-0.5-2.4-7.4-2.8-8.2-0.2-0.3-4.3-2.9-4.6-2.9-0.1 0-1 0.8-2 1.7-1.8 1.6-3.2 2.6-3.9 2.6-0.2 0-0.6-0.6-1.1-1.4-0.4-0.8-3-5.5-5.8-10.5-2.8-5-5.4-9.7-5.8-10.3C202.4 99.2 192.8 82.1 182.4 63.4 178.3 56 179 57.4 178.3 56c-0.1-0.2 5.3-1.3 10.3-2.7 9.4-2.6 9.2-2.6 11.6-4.4l1.1-0.9 0.1-15.1 0.1-15.1 3.8-8.1 3.8-8.1 10.2 0.1c5.6 0.1 10.3 0.2 10.3 0.2 0 0 1.3 3.5 2.9 7.8l2.8 7.8 0.7 14.8c0.8 17.4 0.2 14.8 4.1 17.9l0.8 0.7 11 1.6 11 1.6 4.9-0.9c6.3-1.2 6.3-2.2 0.3 9-4.4 8.3-5 9.6-5 10.3 0 0.5 0.8 8 1.7 16.7 1.6 16 1.7 15.6 1.9 16.6-0.4 0-18.1 4.5-18.4 4.8-0.1 0.1-1.9 2.6-3.7 5.9C228.7 145.8 228.8 145.7 228.6 145.7c-0.1 0-0.2-0.1-0.4-0.3zM225 28.3c3.6-0.6 8.6-1.2 9.3-1.8 0-1.9 0-1.9 0-3.5-6.4 2.7-22.7 3.1-31.5-0.1 0 1.6 0 0 0 3.5 1.8 0.8 6.9 1.7 12.2 2.2 1.8 0.2 8 0 10.1-0.3zm-32.1 90.6-11.4-8.8-9.9-3.6c-5.4-2-10.3-3.7-10.3-4C162.1 87.1 161.5 102.4 162.2 87.1c0.6-8.3 1.2-15.7 1.2-16.3 0-1.1-0.1-1.3-4-8.9-2.6-5.1-4-7.8-3.8-8 0.3-0.3 12.9 1.5 13.5 2 0.5 0.4 14.8 25.7 37.3 66 0.8 1.4 0 0 1.4 3.4-2.7 2.4-2.9 2.3-2.9 2.3 0 0-5.5-3.9-11.8-8.8z" fill="#FFF"/></g></svg>